<?xml version="1.0" standalone="no"?>
<!DOCTYPE svg PUBLIC "-//W3C//DTD SVG 20010904//EN"
 "http://www.w3.org/TR/2001/REC-SVG-20010904/DTD/svg10.dtd">
<svg version="1.0" xmlns="http://www.w3.org/2000/svg"
 width="1280.000000pt" height="960.000000pt" viewBox="0 0 1280.000000 960.000000"
 preserveAspectRatio="xMidYMid meet">
<g transform="translate(0.000000,960.000000) scale(0.100000,-0.100000)"
fill="#000000" stroke="none">
<path d="M6377 9244 c-1 -1 -81 -5 -177 -9 -96 -4 -188 -8 -205 -10 -68 -6
-154 -16 -210 -25 -222 -37 -311 -52 -317 -56 -6 -4 -93 -23 -133 -29 -21 -3
-298 -82 -325 -92 -8 -4 -17 -7 -20 -8 -3 -1 -14 -5 -25 -9 -11 -4 -54 -20
-95 -36 -41 -15 -86 -31 -100 -35 -24 -7 -51 -19 -200 -87 -91 -41 -262 -129
-340 -173 -36 -21 -85 -49 -110 -63 -74 -42 -155 -95 -158 -104 -2 -4 -8 -8
-14 -8 -6 0 -27 -13 -48 -30 -21 -16 -43 -30 -49 -30 -6 0 -11 -3 -11 -7 -1
-5 -24 -24 -51 -43 -280 -195 -654 -552 -869 -830 -19 -25 -37 -47 -40 -50
-16 -14 -230 -322 -259 -373 -10 -18 -51 -87 -90 -155 -285 -492 -493 -1127
-550 -1682 -6 -58 -13 -123 -16 -145 -11 -95 -15 -542 -5 -670 23 -311 95
-718 166 -936 8 -25 16 -54 18 -65 18 -83 160 -450 235 -606 242 -499 522
-891 908 -1268 170 -167 192 -187 328 -296 676 -543 1450 -863 2321 -961 196
-22 692 -24 889 -5 886 89 1718 435 2405 1001 172 142 407 375 581 578 15 16
69 86 121 154 512 670 817 1451 899 2299 14 150 19 532 8 690 -20 306 -71 599
-164 945 -8 33 -17 65 -18 72 -2 7 -6 16 -10 19 -4 4 -7 14 -7 22 0 15 -79
239 -105 297 -7 17 -23 54 -35 84 -46 118 -167 363 -228 465 -23 37 -42 69
-42 71 0 8 -166 268 -192 300 -4 6 -36 48 -70 94 -115 153 -142 188 -234 293
-113 128 -349 362 -444 438 -190 154 -231 187 -250 200 -12 8 -29 21 -37 29
-8 8 -42 32 -76 54 -34 22 -64 42 -67 46 -3 3 -21 15 -40 25 -19 11 -48 30
-63 43 -16 13 -33 23 -38 23 -5 0 -28 12 -50 26 -23 14 -62 37 -87 51 -26 14
-49 30 -52 34 -3 5 -15 10 -25 12 -11 1 -31 10 -45 19 -41 27 -372 184 -420
199 -14 4 -50 17 -80 29 -82 32 -201 71 -235 77 -16 3 -32 8 -35 12 -3 5 -16
11 -30 14 -14 3 -70 17 -124 31 -106 28 -127 33 -221 51 -11 2 -21 4 -22 5 -5
4 -94 21 -128 25 -5 1 -26 4 -45 8 -79 15 -274 37 -410 47 -125 9 -328 17
-333 14z m443 -459 c356 -39 632 -102 953 -219 1069 -387 1950 -1238 2366
-2284 75 -188 172 -501 195 -628 3 -13 7 -32 10 -42 3 -9 7 -35 11 -57 3 -22
7 -47 10 -55 7 -23 33 -213 46 -330 14 -134 20 -533 9 -670 -17 -204 -24 -257
-66 -480 -32 -169 -106 -453 -134 -515 -5 -11 -18 -47 -29 -80 -76 -228 -243
-565 -404 -817 -34 -54 -69 -106 -77 -115 -8 -10 -33 -43 -55 -73 -65 -90
-143 -189 -213 -269 -130 -150 -429 -435 -538 -514 -18 -12 -67 -49 -110 -82
-148 -112 -399 -269 -519 -326 -38 -18 -72 -36 -75 -39 -23 -28 -528 -230
-573 -230 -9 0 -17 -5 -17 -12 0 -6 -2 -9 -6 -6 -3 3 -26 -1 -52 -9 -56 -17
-179 -52 -207 -58 -11 -3 -40 -9 -65 -15 -49 -11 -207 -39 -255 -46 -16 -2
-52 -8 -80 -13 -87 -17 -296 -31 -490 -34 -221 -3 -461 13 -655 43 -254 40
-534 107 -690 165 -237 87 -511 204 -530 226 -3 3 -21 11 -40 19 -32 12 -93
45 -173 94 -18 11 -41 24 -52 30 -11 7 -53 34 -94 61 -40 28 -84 57 -97 65
-86 56 -322 239 -399 310 -38 35 -165 153 -189 176 -22 21 -191 207 -211 231
-11 14 -42 54 -70 88 -220 274 -387 546 -533 865 -176 386 -268 733 -337 1270
-12 99 -13 588 0 725 76 830 387 1578 929 2235 90 110 365 385 481 482 677
566 1449 880 2335 948 152 12 521 4 690 -15z"/>
<path d="M5707 7864 c-1 -1 -43 -4 -94 -8 -51 -3 -99 -9 -108 -12 -38 -15 -40
-39 -43 -444 -2 -265 -6 -402 -14 -417 -22 -43 -42 -45 -560 -47 -271 -2 -500
-6 -510 -10 -31 -14 -38 -59 -41 -241 -4 -221 5 -389 22 -409 10 -12 56 -15
259 -18 233 -3 250 -4 297 -26 64 -30 91 -55 123 -117 l25 -50 1 -1194 c1
-657 -2 -1237 -6 -1289 -6 -93 -7 -95 -45 -129 -63 -58 -72 -60 -351 -67 -114
-3 -178 -9 -188 -17 -22 -18 -63 -188 -88 -369 -3 -19 -12 -78 -21 -130 -22
-136 -20 -206 4 -220 13 -6 192 -10 513 -10 424 0 557 -5 573 -22 2 -1 5 -196
7 -433 3 -317 7 -436 16 -453 l13 -22 283 0 c215 0 286 3 293 12 20 25 24 107
24 462 -1 199 2 375 5 393 4 23 14 34 33 41 35 12 307 2 325 -12 12 -9 15 -81
19 -426 2 -283 7 -424 15 -442 l12 -28 284 0 c251 0 285 2 297 17 11 13 15
103 19 454 3 240 8 440 12 444 6 6 113 21 278 39 297 31 574 106 774 209 435
223 639 613 623 1192 -4 173 -21 280 -56 360 -5 11 -19 46 -31 77 -42 109
-154 252 -255 326 -27 20 -53 41 -57 47 -4 5 -8 6 -8 1 0 -5 -9 -1 -19 8 -22
20 -131 78 -131 70 0 -3 -15 3 -32 14 -18 12 -37 20 -41 20 -12 0 -57 35 -57
45 0 5 40 49 90 97 184 181 261 358 276 633 14 249 -56 507 -184 679 -51 69
-152 164 -227 215 -61 41 -194 113 -217 117 -7 1 -31 10 -53 20 -111 49 -383
113 -507 119 -21 1 -38 5 -38 10 0 4 -13 7 -29 7 -48 0 -77 16 -94 53 -15 31
-17 83 -18 414 0 277 -4 387 -13 413 -13 35 -14 35 -87 43 -41 5 -165 6 -277
4 -226 -4 -227 -4 -242 -73 -5 -21 -9 -200 -10 -397 0 -225 -4 -365 -10 -377
-6 -11 -20 -25 -33 -31 -29 -16 -253 -20 -285 -6 -49 23 -51 36 -52 441 0 383
-4 418 -39 431 -9 4 -63 8 -121 11 -142 7 -221 9 -223 8z m973 -1655 c142 -13
318 -58 408 -103 190 -95 281 -266 253 -470 -12 -83 -26 -117 -77 -184 -36
-47 -112 -112 -131 -112 -7 0 -13 -3 -13 -8 0 -14 -154 -77 -212 -87 -18 -3
-51 -11 -73 -16 -57 -16 -69 -18 -149 -25 -39 -3 -75 -9 -80 -11 -4 -3 -104
-7 -220 -9 l-212 -4 -32 28 -32 27 -1 445 c0 245 0 462 0 483 1 29 6 40 24 47
31 12 409 12 547 -1z m85 -1679 c508 -44 779 -198 835 -475 14 -68 7 -166 -17
-240 -20 -63 -34 -86 -100 -161 -22 -25 -122 -93 -178 -121 -63 -32 -229 -85
-305 -97 -19 -3 -46 -8 -60 -11 -56 -11 -78 -14 -150 -19 -41 -3 -111 -9 -155
-13 -131 -11 -459 -7 -483 6 -12 6 -27 21 -33 33 -13 24 -15 1077 -2 1089 5 4
19 9 33 12 51 9 499 6 615 -3z"/>
</g>
</svg>
